<svg xmlns="http://www.w3.org/2000/svg" viewBox="0 0 70.56 59.87"><defs><style>.cls-1{fill:#0c2e44;fill-rule:evenodd;}</style></defs><title>Asset 10</title><g id="Layer_2" data-name="Layer 2"><g id="Layer_1-2" data-name="Layer 1"><path class="cls-1" d="M12.2,59.69H7.08V58.13H8.51V52.5H7.08V51H12.2V52.5H10.77v5.63H12.2v1.56Zm9.11.18a5.48,5.48,0,0,1-1.8-.29,3.92,3.92,0,0,1-1.42-.86,3.88,3.88,0,0,1-.92-1.42,5.48,5.48,0,0,1-.33-2,5.57,5.57,0,0,1,.31-1.88A4.06,4.06,0,0,1,18.06,52a3.93,3.93,0,0,1,1.41-.9,5.23,5.23,0,0,1,1.84-.31,7.57,7.57,0,0,1,1,.06,6.27,6.27,0,0,1,.82.16,5.32,5.32,0,0,1,.71.25,5,5,0,0,1,.56.26v2.11h-.25l-.42-.33a5.63,5.63,0,0,0-.57-.38,4.48,4.48,0,0,0-.7-.31,2.32,2.32,0,0,0-.8-.13,2.66,2.66,0,0,0-.9.15,2.19,2.19,0,0,0-.8.5,2.34,2.34,0,0,0-.56.88,3.81,3.81,0,0,0-.21,1.34,3.41,3.41,0,0,0,.23,1.37,2.37,2.37,0,0,0,.58.87,2.09,2.09,0,0,0,.8.46,3,3,0,0,0,.87.14,2.86,2.86,0,0,0,.82-.12,3.28,3.28,0,0,0,.74-.33,4.1,4.1,0,0,0,.53-.36l.41-.33h.23v2.09l-.63.27a3.77,3.77,0,0,1-.62.22,5.83,5.83,0,0,1-.81.19,6.62,6.62,0,0,1-1,.07Zm16.13-.18H35.11l-.6-1.77H31.29l-.6,1.77H28.4L31.63,51h2.59l3.22,8.74ZM34,56.32,32.9,53.21l-1.07,3.11Zm16,3.37H47.8l-3.7-6v6H42V51h2.7l3.18,5V51H50v8.74Zm13.5,0H61.3l-3.7-6v6H55.53V51h2.69l3.19,5V51h2.07Z"/><path class="cls-1" d="M42.81,5.55a64.25,64.25,0,0,1-6,5.81,74,74,0,0,0-6.5-7.51A66.86,66.86,0,0,1,45.35,33L47,30.47a75.59,75.59,0,0,0-3.2-7.61,50,50,0,0,0,6.72-5.34,22.76,22.76,0,0,0-1.4-3.84,47.67,47.67,0,0,1-6.65,6.6,71.91,71.91,0,0,0-3.76-6.19,57.18,57.18,0,0,0,6.8-5.91,21.88,21.88,0,0,0-2.74-2.63Zm1.73,30.94c-8.92,5.09-20,3-25.95-4.52a41.75,41.75,0,0,1-6.87.13A46.82,46.82,0,0,0,29,28.35c.24.44.49.87.74,1.3a54.67,54.67,0,0,1-6.46,1.65c5.8,6.63,14.62,9,21.29,5.19ZM40.27,22c.35.81.69,1.62,1,2.45a58.32,58.32,0,0,1-9,4.27,67.63,67.63,0,0,0,6,7.42H35.4A68.33,68.33,0,0,1,23,8.66a64,64,0,0,0,3.39,9.62,53.37,53.37,0,0,0,8.84-5.67c.58.9,1.14,1.82,1.67,2.75a47,47,0,0,1-9.56,5,64.82,64.82,0,0,0,4,7A54.31,54.31,0,0,0,40.27,22ZM24.72,19.11a51.31,51.31,0,0,1-14.4,4.22c1.49,0,3,0,4.41-.16a18.59,18.59,0,0,0,2.33,6.56c.07.13.15.26.23.38,1.41-.25,2.84-.57,4.29-1-.33-.47-.64-1-.93-1.46a23.52,23.52,0,0,1-2.17-5,43.34,43.34,0,0,0,7-1.7c-.25-.62-.5-1.26-.74-1.9Zm.17-16.32C34.65-2.78,47,.24,52.38,9.55s1.92,21.36-7.84,26.94c7.77-4.44,9.67-15.59,4.24-24.89S32.66-1.64,24.89,2.79ZM14.53,21.27c1.14-.27,2.26-.59,3.37-.94-1.32-7.21,1.21-14.23,7-17.53A20.21,20.21,0,0,0,14.53,21.27Z"/><path class="cls-1" d="M35.28,45.1a221.93,221.93,0,0,1,35.28,2.68c-11.2-.56-23-.87-35.28-.87S11.2,47.22,0,47.78A221.93,221.93,0,0,1,35.28,45.1Z"/></g></g></svg>