<svg xmlns="http://www.w3.org/2000/svg" xmlns:xlink="http://www.w3.org/1999/xlink" viewBox="0 0 135 68.8"><defs><style>.cls-1{fill:none;}.cls-2{fill:#133c8b;}.cls-3{clip-path:url(#clip-path);}.cls-4{fill:url(#linear-gradient);}.cls-5{clip-path:url(#clip-path-2);}.cls-6{fill:url(#linear-gradient-2);}.cls-7{clip-path:url(#clip-path-3);}.cls-8{fill:url(#linear-gradient-3);}.cls-9{clip-path:url(#clip-path-4);}.cls-10{fill:url(#linear-gradient-4);}.cls-11{clip-path:url(#clip-path-5);}.cls-12{fill:url(#linear-gradient-5);}.cls-13{clip-path:url(#clip-path-6);}.cls-14{fill:url(#linear-gradient-6);}.cls-15{clip-path:url(#clip-path-7);}.cls-16{fill:url(#linear-gradient-7);}</style><clipPath id="clip-path" transform="translate(0 0)"><path class="cls-1" d="M0,59.22v.17a9.49,9.49,0,1,0,0-.17"/></clipPath><linearGradient id="linear-gradient" x1="496.51" y1="-125.78" x2="496.94" y2="-125.78" gradientTransform="matrix(43.82, 0, 0, -43.82, -21756.69, -5452.09)" gradientUnits="userSpaceOnUse"><stop offset="0" stop-color="#da2128"/><stop offset="0.15" stop-color="#e23c2b"/><stop offset="0.33" stop-color="#ea532e"/><stop offset="0.52" stop-color="#ef6330"/><stop offset="0.73" stop-color="#f26d32"/><stop offset="1" stop-color="#f37032"/></linearGradient><clipPath id="clip-path-2" transform="translate(0 0)"><path class="cls-1" d="M104.72,10.78a2,2,0,0,0-2,2v0a2,2,0,0,0,2,2H133a2,2,0,0,0,2.05-2v0a2,2,0,0,0-2.05-2Z"/></clipPath><linearGradient id="linear-gradient-2" x1="499.5" y1="-124.42" x2="499.93" y2="-124.42" gradientTransform="matrix(74.64, 0, 0, -74.64, -37178, -9273.72)" xlink:href="#linear-gradient"/><clipPath id="clip-path-3" transform="translate(0 0)"><rect class="cls-1" x="114.37" y="5.39" width="8.99" height="4.04" rx="2.02"/></clipPath><linearGradient id="linear-gradient-3" x1="476.4" y1="-134.89" x2="476.83" y2="-134.89" gradientTransform="matrix(20.74, 0, 0, -20.74, -9768.32, -2790.76)" xlink:href="#linear-gradient"/><clipPath id="clip-path-4" transform="translate(0 0)"><path class="cls-1" d="M118.86,0a2,2,0,0,0-2,2V2a2,2,0,0,0,4,0V2A2,2,0,0,0,118.86,0Z"/></clipPath><linearGradient id="linear-gradient-4" x1="436.78" y1="-153.43" x2="437.21" y2="-153.43" gradientTransform="matrix(9.27, 0, 0, -9.27, -3930.97, -1419.9)" xlink:href="#linear-gradient"/><clipPath id="clip-path-5" transform="translate(0 0)"><rect class="cls-1" x="119.64" y="21.55" width="8.99" height="4.04" rx="2.02"/></clipPath><linearGradient id="linear-gradient-5" x1="476.06" y1="-133.87" x2="476.5" y2="-133.87" gradientTransform="matrix(20.74, 0, 0, -20.74, -9755.8, -2753.37)" xlink:href="#linear-gradient"/><clipPath id="clip-path-6" transform="translate(0 0)"><path class="cls-1" d="M128.33,26.94a2,2,0,0,0,0,4h0a2,2,0,1,0,0-4Z"/></clipPath><linearGradient id="linear-gradient-6" x1="435.94" y1="-149.43" x2="436.38" y2="-149.43" gradientTransform="matrix(9.33, 0, 0, -9.33, -3941.55, -1365.4)" xlink:href="#linear-gradient"/><clipPath id="clip-path-7" transform="translate(0 0)"><path class="cls-1" d="M112.81,16.16a2,2,0,0,0-2.06,2h0a2,2,0,0,0,2.06,2h12a2,2,0,0,0,2-2h0a2,2,0,0,0-2-2Z"/></clipPath><linearGradient id="linear-gradient-7" x1="490.6" y1="-128.13" x2="491.04" y2="-128.13" gradientTransform="matrix(37.31, 0, 0, -37.31, -18194.17, -4762.59)" xlink:href="#linear-gradient"/></defs><title>Asset 40</title><g id="Layer_2" data-name="Layer 2"><g id="Layer_1-2" data-name="Layer 1"><path class="cls-2" d="M99.49,20.37c-6.53,0-10.45,2.8-12.88,6.16V24a2.51,2.51,0,0,0-2.52-2.52h-11a3.35,3.35,0,0,0-3.35,3.36V65.44a3.34,3.34,0,0,0,3.35,3.36H83.25a3.34,3.34,0,0,0,3.36-3.36V43.33c0-3.73,2.52-6.53,6.72-6.53a6.32,6.32,0,0,1,6.72,6.53V65.44a3.32,3.32,0,0,0,3.26,3.36h10.18a3.34,3.34,0,0,0,3.35-3.36V39.22c0-6.9-2.52-18.85-17.35-18.85m-50,4L41.64,49,33.81,24.39a4.22,4.22,0,0,0-3.92-2.9H18.78A2.52,2.52,0,0,0,16.45,25L32.5,66.19a4.06,4.06,0,0,0,3.83,2.61H47a4.27,4.27,0,0,0,3.92-2.61L66.84,25a2.52,2.52,0,0,0-2.34-3.46h-11a4.24,4.24,0,0,0-4,2.9" transform="translate(0 0)"/><g class="cls-3"><rect class="cls-4" y="49.82" width="18.98" height="18.98"/></g><g class="cls-5"><rect class="cls-6" x="102.67" y="10.78" width="32.33" height="4.04"/></g><g class="cls-7"><rect class="cls-8" x="114.37" y="5.39" width="8.99" height="4.04"/></g><g class="cls-9"><rect class="cls-10" x="116.85" width="4.01" height="4.04"/></g><g class="cls-11"><rect class="cls-12" x="119.64" y="21.55" width="8.99" height="4.04"/></g><g class="cls-13"><rect class="cls-14" x="126.31" y="26.94" width="4.04" height="4.04"/></g><g class="cls-15"><rect class="cls-16" x="110.75" y="16.16" width="16.16" height="4.04"/></g></g></g></svg>